<mxfile host="app.diagrams.net" modified="2022-04-21T16:42:54.419Z" agent="5.0 (X11)" etag="OkjbTuexrz7Knlj9GpTj" version="17.4.6" type="github">
  <diagram name="Page-1" id="e7e014a7-5840-1c2e-5031-d8a46d1fe8dd">
    <mxGraphModel dx="868" dy="1310" grid="1" gridSize="10" guides="1" tooltips="1" connect="1" arrows="1" fold="1" page="1" pageScale="1" pageWidth="1169" pageHeight="826" background="none" math="0" shadow="0">
      <root>
        <mxCell id="0" />
        <mxCell id="1" parent="0" />
        <mxCell id="2" value="PollyPipe System" style="swimlane;whiteSpace=wrap;startSize=23;" parent="1" vertex="1">
          <mxGeometry x="220" y="-150" width="440" height="680" as="geometry" />
        </mxCell>
        <mxCell id="b85n69TcQbK159LMy9oT-43" value="Customer Details" style="ellipse;whiteSpace=wrap;html=1;" vertex="1" parent="2">
          <mxGeometry x="60" y="170" width="120" height="58" as="geometry" />
        </mxCell>
        <mxCell id="b85n69TcQbK159LMy9oT-44" value="Staff Details" style="ellipse;whiteSpace=wrap;html=1;" vertex="1" parent="2">
          <mxGeometry x="65.5" y="250" width="120" height="58" as="geometry" />
        </mxCell>
        <mxCell id="b85n69TcQbK159LMy9oT-45" value="Equipment&amp;nbsp; Details" style="ellipse;whiteSpace=wrap;html=1;" vertex="1" parent="2">
          <mxGeometry x="60" y="331" width="120" height="58" as="geometry" />
        </mxCell>
        <mxCell id="b85n69TcQbK159LMy9oT-46" value="Installation&amp;nbsp; Details" style="ellipse;whiteSpace=wrap;html=1;" vertex="1" parent="2">
          <mxGeometry x="65.5" y="410" width="120" height="58" as="geometry" />
        </mxCell>
        <mxCell id="b85n69TcQbK159LMy9oT-47" value="Installation Employee&amp;nbsp; Details" style="ellipse;whiteSpace=wrap;html=1;" vertex="1" parent="2">
          <mxGeometry x="65.5" y="494" width="120" height="58" as="geometry" />
        </mxCell>
        <mxCell id="b85n69TcQbK159LMy9oT-48" value="Payment&amp;nbsp; Details" style="ellipse;whiteSpace=wrap;html=1;" vertex="1" parent="2">
          <mxGeometry x="65.5" y="580" width="120" height="58" as="geometry" />
        </mxCell>
        <mxCell id="b85n69TcQbK159LMy9oT-59" value="Log in" style="ellipse;whiteSpace=wrap;html=1;" vertex="1" parent="2">
          <mxGeometry x="60" y="80" width="120" height="58" as="geometry" />
        </mxCell>
        <mxCell id="b85n69TcQbK159LMy9oT-60" value="Verify Username and Password" style="ellipse;whiteSpace=wrap;html=1;" vertex="1" parent="2">
          <mxGeometry x="291" y="42" width="114" height="58" as="geometry" />
        </mxCell>
        <mxCell id="b85n69TcQbK159LMy9oT-63" value="Display Login error message" style="ellipse;whiteSpace=wrap;html=1;" vertex="1" parent="2">
          <mxGeometry x="300" y="170" width="114" height="58" as="geometry" />
        </mxCell>
        <mxCell id="b85n69TcQbK159LMy9oT-71" value="&amp;lt;&amp;lt;Extends&amp;gt;&amp;gt;" style="endArrow=block;endSize=16;endFill=0;html=1;rounded=0;exitX=0;exitY=0.5;exitDx=0;exitDy=0;entryX=0.983;entryY=0.741;entryDx=0;entryDy=0;entryPerimeter=0;dashed=1;" edge="1" parent="2" source="b85n69TcQbK159LMy9oT-63" target="b85n69TcQbK159LMy9oT-59">
          <mxGeometry width="160" relative="1" as="geometry">
            <mxPoint x="240" y="220" as="sourcePoint" />
            <mxPoint x="400" y="220" as="targetPoint" />
          </mxGeometry>
        </mxCell>
        <mxCell id="b85n69TcQbK159LMy9oT-72" value="" style="endArrow=block;dashed=1;endFill=0;endSize=12;html=1;rounded=0;entryX=0;entryY=0.5;entryDx=0;entryDy=0;" edge="1" parent="2" target="b85n69TcQbK159LMy9oT-60">
          <mxGeometry width="160" relative="1" as="geometry">
            <mxPoint x="185.5" y="108.5" as="sourcePoint" />
            <mxPoint x="345.5" y="108.5" as="targetPoint" />
          </mxGeometry>
        </mxCell>
        <mxCell id="b85n69TcQbK159LMy9oT-75" value="&amp;lt;&amp;lt;include&amp;gt;&amp;gt;" style="text;html=1;strokeColor=none;fillColor=none;align=center;verticalAlign=middle;whiteSpace=wrap;rounded=0;" vertex="1" parent="2">
          <mxGeometry x="220" y="70" width="60" height="30" as="geometry" />
        </mxCell>
        <mxCell id="b85n69TcQbK159LMy9oT-42" value="Admin" style="shape=umlActor;verticalLabelPosition=bottom;verticalAlign=top;html=1;outlineConnect=0;" vertex="1" parent="1">
          <mxGeometry x="30" y="200" width="30" height="60" as="geometry" />
        </mxCell>
        <mxCell id="b85n69TcQbK159LMy9oT-64" value="" style="endArrow=classic;html=1;rounded=0;entryX=0;entryY=0.5;entryDx=0;entryDy=0;" edge="1" parent="1" target="b85n69TcQbK159LMy9oT-59">
          <mxGeometry width="50" height="50" relative="1" as="geometry">
            <mxPoint x="60" y="220" as="sourcePoint" />
            <mxPoint x="110" y="170" as="targetPoint" />
          </mxGeometry>
        </mxCell>
        <mxCell id="b85n69TcQbK159LMy9oT-65" value="" style="endArrow=classic;html=1;rounded=0;entryX=0;entryY=0.5;entryDx=0;entryDy=0;" edge="1" parent="1" target="b85n69TcQbK159LMy9oT-43">
          <mxGeometry width="50" height="50" relative="1" as="geometry">
            <mxPoint x="60" y="220" as="sourcePoint" />
            <mxPoint x="130" y="210" as="targetPoint" />
          </mxGeometry>
        </mxCell>
        <mxCell id="b85n69TcQbK159LMy9oT-66" value="" style="endArrow=classic;html=1;rounded=0;entryX=0;entryY=0.5;entryDx=0;entryDy=0;" edge="1" parent="1" target="b85n69TcQbK159LMy9oT-44">
          <mxGeometry width="50" height="50" relative="1" as="geometry">
            <mxPoint x="60" y="220" as="sourcePoint" />
            <mxPoint x="110" y="210" as="targetPoint" />
          </mxGeometry>
        </mxCell>
        <mxCell id="b85n69TcQbK159LMy9oT-67" value="" style="endArrow=classic;html=1;rounded=0;exitX=1;exitY=0.3333333333333333;exitDx=0;exitDy=0;exitPerimeter=0;entryX=0;entryY=0.5;entryDx=0;entryDy=0;" edge="1" parent="1" source="b85n69TcQbK159LMy9oT-42" target="b85n69TcQbK159LMy9oT-45">
          <mxGeometry width="50" height="50" relative="1" as="geometry">
            <mxPoint x="80" y="290" as="sourcePoint" />
            <mxPoint x="130" y="240" as="targetPoint" />
          </mxGeometry>
        </mxCell>
        <mxCell id="b85n69TcQbK159LMy9oT-68" value="" style="endArrow=classic;html=1;rounded=0;exitX=1;exitY=0.3333333333333333;exitDx=0;exitDy=0;exitPerimeter=0;entryX=0;entryY=0.5;entryDx=0;entryDy=0;" edge="1" parent="1" source="b85n69TcQbK159LMy9oT-42" target="b85n69TcQbK159LMy9oT-46">
          <mxGeometry width="50" height="50" relative="1" as="geometry">
            <mxPoint x="90" y="340" as="sourcePoint" />
            <mxPoint x="140" y="290" as="targetPoint" />
          </mxGeometry>
        </mxCell>
        <mxCell id="b85n69TcQbK159LMy9oT-69" value="" style="endArrow=classic;html=1;rounded=0;entryX=0;entryY=0.5;entryDx=0;entryDy=0;" edge="1" parent="1" target="b85n69TcQbK159LMy9oT-47">
          <mxGeometry width="50" height="50" relative="1" as="geometry">
            <mxPoint x="60" y="220" as="sourcePoint" />
            <mxPoint x="110" y="340" as="targetPoint" />
          </mxGeometry>
        </mxCell>
        <mxCell id="b85n69TcQbK159LMy9oT-70" value="" style="endArrow=classic;html=1;rounded=0;entryX=0;entryY=0.5;entryDx=0;entryDy=0;" edge="1" parent="1" target="b85n69TcQbK159LMy9oT-48">
          <mxGeometry width="50" height="50" relative="1" as="geometry">
            <mxPoint x="60" y="220" as="sourcePoint" />
            <mxPoint x="110" y="370" as="targetPoint" />
          </mxGeometry>
        </mxCell>
      </root>
    </mxGraphModel>
  </diagram>
</mxfile>
